<?xml version="1.0" standalone="no"?><!DOCTYPE svg PUBLIC "-//W3C//DTD SVG 1.1//EN" "http://www.w3.org/Graphics/SVG/1.1/DTD/svg11.dtd"><svg t="1751208627382" class="icon" viewBox="0 0 1024 1024" version="1.1" xmlns="http://www.w3.org/2000/svg" p-id="1678" xmlns:xlink="http://www.w3.org/1999/xlink" width="200" height="200"><path d="M512 972.8a486.4 486.4 0 1 1 486.4-486.4 486.4 486.4 0 0 1-486.4 486.4z" fill="#1D86F0" p-id="1679"></path><path d="M512 282.112v-76.8h12.8v76.8a96 96 0 0 1 89.6 96h-192a96 96 0 0 1 89.6-96z m256 153.6h51.2a25.6 25.6 0 0 1 25.6 25.6v102.4a25.6 25.6 0 0 1-25.6 25.6h-51.2z m-499.2 0v153.6H217.6a25.6 25.6 0 0 1-25.6-25.6v-102.4a25.6 25.6 0 0 1 25.6-25.6z m217.6 243.2h64v102.4h-64z" fill="#C2E0FF" p-id="1680"></path><path d="M332.8 320h371.2a102.4 102.4 0 0 1 102.4 102.4v179.2a102.4 102.4 0 0 1-102.4 102.4H332.8a102.4 102.4 0 0 1-102.4-102.4V422.4A102.4 102.4 0 0 1 332.8 320z m96 89.6a108.8 108.8 0 1 0 0 217.6h179.2a108.8 108.8 0 0 0 0-217.6zM518.4 1024a147.2 147.2 0 1 1 147.2-147.2A147.2 147.2 0 0 1 518.4 1024z m0-793.6a32 32 0 1 1 32-32 32 32 0 0 1-32 32z m-102.4 320a32 32 0 1 1 32-32 32 32 0 0 1-32 32z m192 0a32 32 0 1 1 32-32 32 32 0 0 1-32 32z" fill="#FFFFFF" p-id="1681"></path><path d="M428.8 390.4h179.2a128 128 0 0 1 0 256H428.8a128 128 0 0 1 0-256z m0 19.2a108.8 108.8 0 1 0 0 217.6h179.2a108.8 108.8 0 0 0 0-217.6z" fill="#C2E0FF" p-id="1682"></path></svg>